<?xml version="1.0" encoding="iso-8859-1"?>
<!-- Generator: Adobe Illustrator 19.0.0, SVG Export Plug-In . SVG Version: 6.00 Build 0)  -->
<svg version="1.1" id="Capa_1" xmlns="http://www.w3.org/2000/svg" xmlns:xlink="http://www.w3.org/1999/xlink" x="0px" y="0px"
	 viewBox="0 0 512 512" style="enable-background:new 0 0 512 512;" xml:space="preserve">
<path style="fill:#A4D9F5;" d="M485.639,177.36c-14.675-14.676-34.576-23.867-55.64-25.92c-1.022-0.1-2.053-0.161-3.082-0.227
	c-0.464-0.03-0.925-0.079-1.39-0.101C424.024,151.038,422.515,151,421,151h-0.681C412.757,66.471,341.955,0,256,0
	C181.931,0,116.93,50.37,97.111,121.373c-4.395,0.363-8.768,0.997-13.084,1.902c-20.162,4.195-38.861,14.067-53.272,28.479
	c-19.165,19.163-30.007,44.43-30.716,71.418c-0.052,1.886-0.052,3.771,0,5.657c0.709,26.987,11.551,52.255,30.715,71.418
	c14.412,14.411,33.11,24.283,53.272,28.479C91.244,330.239,98.625,331,106,331h150h120h45c2.999,0,6.014-0.147,9-0.44
	c21.063-2.054,40.964-11.245,55.64-25.92C502.639,287.641,512,265.04,512,241S502.639,194.359,485.639,177.36
	C470.964,162.685,502.639,194.359,485.639,177.36C470.964,162.685,502.639,194.359,485.639,177.36z M421,301h-45H256H106
	c-40.932,0-76-33.777-76-75s35.068-75,76-75c20.033,0,38.867,7.802,53.033,21.967c5.857,5.858,15.355,5.858,21.213,0
	s5.858-15.355,0-21.213c-14.569-14.568-32.667-24.321-52.363-28.476C146.043,68.375,197.579,30,256,30
	c71.176,0,129.656,55.779,134.648,126.223c-12.376,4.421-23.719,11.569-33.288,21.138c-5.858,5.858-5.858,15.355,0,21.213
	c5.857,5.858,15.355,5.858,21.213,0c8.441-8.44,18.955-14.051,30.392-16.368c0.033-0.007,0.065-0.015,0.098-0.022
	C412.951,181.403,416.944,181,421,181c6.566,0,13.133,1.097,19.362,3.116C464.532,192.097,482,214.572,482,241
	s-17.468,48.903-41.638,56.884C434.133,299.903,427.566,301,421,301z"/>
<g>
	<path style="fill:#1DE8F1;" d="M136,451c-8.284,0-15-6.716-15-15v-60c0-8.284,6.716-15,15-15s15,6.716,15,15v60
		C151,444.284,144.284,451,136,451z"/>
	<path style="fill:#1DE8F1;" d="M196,512c-8.284,0-15-6.716-15-15V376c0-8.284,6.716-15,15-15s15,6.716,15,15v121
		C211,505.284,204.284,512,196,512z"/>
	<path style="fill:#1DE8F1;" d="M76,512c-8.284,0-15-6.716-15-15V376c0-8.284,6.716-15,15-15s15,6.716,15,15v121
		C91,505.284,84.284,512,76,512z"/>
	<path style="fill:#1DE8F1;" d="M316,512c-8.284,0-15-6.716-15-15V376c0-8.284,6.716-15,15-15s15,6.716,15,15v121
		C331,505.284,324.284,512,316,512z"/>
	<path style="fill:#1DE8F1;" d="M436,512c-8.284,0-15-6.716-15-15V376c0-8.284,6.716-15,15-15s15,6.716,15,15v121
		C451,505.284,444.284,512,436,512z"/>
	<path style="fill:#1DE8F1;" d="M376,451c-8.284,0-15-6.716-15-15v-60c0-8.284,6.716-15,15-15s15,6.716,15,15v60
		C391,444.284,384.284,451,376,451z"/>
	<path style="fill:#1DE8F1;" d="M256,451c-8.284,0-15-6.716-15-15v-60c0-8.284,6.716-15,15-15s15,6.716,15,15v60
		C271,444.284,264.284,451,256,451z"/>
</g>
<g>
</g>
<g>
</g>
<g>
</g>
<g>
</g>
<g>
</g>
<g>
</g>
<g>
</g>
<g>
</g>
<g>
</g>
<g>
</g>
<g>
</g>
<g>
</g>
<g>
</g>
<g>
</g>
<g>
</g>
</svg>
